<?xml version="1.0" encoding="UTF-8" ?>
<svg version="1.1" width="48" height="48" xmlns="http://www.w3.org/2000/svg" shape-rendering="crispEdges">
<rect x="3" y="1" width="42" height="6" fill="#000000" />
<rect x="2" y="2" width="1" height="45" fill="#000000" />
<rect x="45" y="2" width="1" height="10" fill="#000000" />
<rect x="1" y="3" width="1" height="43" fill="#000000" />
<rect x="46" y="3" width="1" height="11" fill="#000000" />
<rect x="3" y="7" width="31" height="1" fill="#000000" />
<rect x="34" y="7" width="6" height="19" fill="#FFFFFF" />
<rect x="40" y="7" width="5" height="1" fill="#000000" />
<rect x="3" y="8" width="29" height="1" fill="#000000" />
<rect x="32" y="8" width="2" height="17" fill="#FFFFFF" />
<rect x="40" y="8" width="2" height="7" fill="#FFFFFF" />
<rect x="42" y="8" width="3" height="1" fill="#000000" />
<rect x="3" y="9" width="28" height="1" fill="#000000" />
<rect x="31" y="9" width="1" height="15" fill="#FFFFFF" />
<rect x="42" y="9" width="1" height="5" fill="#FFFFFF" />
<rect x="43" y="9" width="2" height="1" fill="#000000" />
<rect x="3" y="10" width="27" height="1" fill="#000000" />
<rect x="30" y="10" width="1" height="13" fill="#FFFFFF" />
<rect x="43" y="10" width="1" height="4" fill="#FFFFFF" />
<rect x="44" y="10" width="1" height="1" fill="#000000" />
<rect x="3" y="11" width="26" height="1" fill="#000000" />
<rect x="29" y="11" width="1" height="11" fill="#FFFFFF" />
<rect x="44" y="11" width="1" height="4" fill="#FFFFFF" />
<rect x="3" y="12" width="25" height="2" fill="#000000" />
<rect x="28" y="12" width="1" height="9" fill="#FFFFFF" />
<rect x="45" y="12" width="1" height="4" fill="#FFFFFF" />
<rect x="3" y="14" width="24" height="2" fill="#000000" />
<rect x="27" y="14" width="1" height="6" fill="#FFFFFF" />
<rect x="42" y="14" width="2" height="7" fill="#000000" />
<rect x="46" y="14" width="1" height="6" fill="#FFFFFF" />
<rect x="40" y="15" width="1" height="1" fill="#FFFFFF" />
<rect x="41" y="15" width="1" height="5" fill="#000000" />
<rect x="44" y="15" width="1" height="5" fill="#000000" />
<rect x="3" y="16" width="8" height="1" fill="#000000" />
<rect x="11" y="16" width="7" height="7" fill="#FFFFFF" />
<rect x="18" y="16" width="9" height="1" fill="#000000" />
<rect x="40" y="16" width="1" height="3" fill="#000000" />
<rect x="45" y="16" width="1" height="3" fill="#000000" />
<rect x="3" y="17" width="6" height="1" fill="#000000" />
<rect x="9" y="17" width="2" height="18" fill="#FFFFFF" />
<rect x="18" y="17" width="2" height="6" fill="#FFFFFF" />
<rect x="20" y="17" width="7" height="1" fill="#000000" />
<rect x="3" y="18" width="5" height="1" fill="#000000" />
<rect x="8" y="18" width="1" height="16" fill="#FFFFFF" />
<rect x="20" y="18" width="1" height="5" fill="#FFFFFF" />
<rect x="21" y="18" width="6" height="1" fill="#000000" />
<rect x="3" y="19" width="4" height="1" fill="#000000" />
<rect x="7" y="19" width="1" height="14" fill="#FFFFFF" />
<rect x="21" y="19" width="1" height="5" fill="#FFFFFF" />
<rect x="22" y="19" width="5" height="1" fill="#000000" />
<rect x="40" y="19" width="1" height="6" fill="#FFFFFF" />
<rect x="45" y="19" width="1" height="2" fill="#FFFFFF" />
<rect x="3" y="20" width="3" height="1" fill="#000000" />
<rect x="6" y="20" width="1" height="12" fill="#FFFFFF" />
<rect x="22" y="20" width="1" height="5" fill="#FFFFFF" />
<rect x="23" y="20" width="5" height="1" fill="#000000" />
<rect x="41" y="20" width="1" height="5" fill="#FFFFFF" />
<rect x="44" y="20" width="1" height="2" fill="#FFFFFF" />
<rect x="46" y="20" width="1" height="26" fill="#000000" />
<rect x="3" y="21" width="2" height="2" fill="#000000" />
<rect x="5" y="21" width="1" height="10" fill="#FFFFFF" />
<rect x="23" y="21" width="1" height="10" fill="#FFFFFF" />
<rect x="24" y="21" width="5" height="2" fill="#000000" />
<rect x="42" y="21" width="2" height="2" fill="#FFFFFF" />
<rect x="45" y="21" width="1" height="26" fill="#000000" />
<rect x="29" y="22" width="1" height="26" fill="#000000" />
<rect x="44" y="22" width="1" height="26" fill="#000000" />
<rect x="3" y="23" width="1" height="25" fill="#000000" />
<rect x="4" y="23" width="1" height="6" fill="#FFFFFF" />
<rect x="11" y="23" width="6" height="1" fill="#FFFFFF" />
<rect x="17" y="23" width="4" height="7" fill="#000000" />
<rect x="24" y="23" width="1" height="6" fill="#FFFFFF" />
<rect x="25" y="23" width="4" height="25" fill="#000000" />
<rect x="30" y="23" width="1" height="25" fill="#000000" />
<rect x="42" y="23" width="1" height="1" fill="#FFFFFF" />
<rect x="43" y="23" width="1" height="25" fill="#000000" />
<rect x="11" y="24" width="5" height="1" fill="#FFFFFF" />
<rect x="16" y="24" width="1" height="5" fill="#000000" />
<rect x="21" y="24" width="1" height="5" fill="#000000" />
<rect x="31" y="24" width="1" height="24" fill="#000000" />
<rect x="42" y="24" width="1" height="24" fill="#000000" />
<rect x="11" y="25" width="4" height="11" fill="#FFFFFF" />
<rect x="15" y="25" width="1" height="3" fill="#000000" />
<rect x="22" y="25" width="1" height="3" fill="#000000" />
<rect x="32" y="25" width="2" height="23" fill="#000000" />
<rect x="40" y="25" width="2" height="23" fill="#000000" />
<rect x="34" y="26" width="6" height="22" fill="#000000" />
<rect x="15" y="28" width="1" height="8" fill="#FFFFFF" />
<rect x="22" y="28" width="1" height="4" fill="#FFFFFF" />
<rect x="4" y="29" width="1" height="19" fill="#000000" />
<rect x="16" y="29" width="1" height="7" fill="#FFFFFF" />
<rect x="21" y="29" width="1" height="4" fill="#FFFFFF" />
<rect x="24" y="29" width="1" height="19" fill="#000000" />
<rect x="17" y="30" width="4" height="4" fill="#FFFFFF" />
<rect x="5" y="31" width="1" height="17" fill="#000000" />
<rect x="23" y="31" width="1" height="17" fill="#000000" />
<rect x="6" y="32" width="1" height="16" fill="#000000" />
<rect x="22" y="32" width="1" height="16" fill="#000000" />
<rect x="7" y="33" width="1" height="15" fill="#000000" />
<rect x="21" y="33" width="1" height="15" fill="#000000" />
<rect x="8" y="34" width="1" height="14" fill="#000000" />
<rect x="17" y="34" width="3" height="1" fill="#FFFFFF" />
<rect x="20" y="34" width="1" height="14" fill="#000000" />
<rect x="9" y="35" width="2" height="13" fill="#000000" />
<rect x="17" y="35" width="1" height="1" fill="#FFFFFF" />
<rect x="18" y="35" width="2" height="13" fill="#000000" />
<rect x="11" y="36" width="7" height="12" fill="#000000" />
</svg>