<?xml version="1.0" encoding="UTF-8" ?>
<svg version="1.1" width="48" height="48" xmlns="http://www.w3.org/2000/svg" shape-rendering="crispEdges">
<rect x="18" y="33" width="12" height="2" fill="#000000" />
<rect x="17" y="34" width="1" height="13" fill="#000000" />
<rect x="30" y="34" width="1" height="3" fill="#000000" />
<rect x="18" y="35" width="9" height="1" fill="#000000" />
<rect x="27" y="35" width="2" height="2" fill="#FFFFFF" />
<rect x="29" y="35" width="1" height="1" fill="#000000" />
<rect x="18" y="36" width="8" height="1" fill="#000000" />
<rect x="26" y="36" width="1" height="4" fill="#FFFFFF" />
<rect x="29" y="36" width="1" height="1" fill="#FFFFFF" />
<rect x="18" y="37" width="7" height="1" fill="#000000" />
<rect x="25" y="37" width="1" height="2" fill="#FFFFFF" />
<rect x="27" y="37" width="1" height="4" fill="#FFFFFF" />
<rect x="28" y="37" width="2" height="2" fill="#000000" />
<rect x="30" y="37" width="1" height="2" fill="#FFFFFF" />
<rect x="18" y="38" width="2" height="1" fill="#000000" />
<rect x="20" y="38" width="2" height="2" fill="#FFFFFF" />
<rect x="22" y="38" width="3" height="1" fill="#000000" />
<rect x="18" y="39" width="1" height="1" fill="#000000" />
<rect x="19" y="39" width="1" height="4" fill="#FFFFFF" />
<rect x="22" y="39" width="1" height="1" fill="#FFFFFF" />
<rect x="23" y="39" width="3" height="1" fill="#000000" />
<rect x="28" y="39" width="2" height="1" fill="#FFFFFF" />
<rect x="30" y="39" width="1" height="8" fill="#000000" />
<rect x="18" y="40" width="1" height="2" fill="#FFFFFF" />
<rect x="20" y="40" width="1" height="4" fill="#FFFFFF" />
<rect x="21" y="40" width="2" height="2" fill="#000000" />
<rect x="23" y="40" width="1" height="2" fill="#FFFFFF" />
<rect x="24" y="40" width="3" height="8" fill="#000000" />
<rect x="28" y="40" width="1" height="1" fill="#FFFFFF" />
<rect x="29" y="40" width="1" height="8" fill="#000000" />
<rect x="27" y="41" width="2" height="7" fill="#000000" />
<rect x="18" y="42" width="1" height="6" fill="#000000" />
<rect x="21" y="42" width="2" height="1" fill="#FFFFFF" />
<rect x="23" y="42" width="1" height="6" fill="#000000" />
<rect x="19" y="43" width="1" height="5" fill="#000000" />
<rect x="21" y="43" width="1" height="1" fill="#FFFFFF" />
<rect x="22" y="43" width="1" height="5" fill="#000000" />
<rect x="20" y="44" width="2" height="4" fill="#000000" />
</svg>