<?xml version="1.0" encoding="UTF-8" ?>
<svg version="1.1" width="48" height="48" xmlns="http://www.w3.org/2000/svg" shape-rendering="crispEdges">
<rect x="11" y="17" width="26" height="4" fill="#000000" />
<rect x="10" y="18" width="1" height="29" fill="#000000" />
<rect x="37" y="18" width="1" height="6" fill="#000000" />
<rect x="9" y="19" width="1" height="27" fill="#000000" />
<rect x="38" y="19" width="1" height="6" fill="#000000" />
<rect x="11" y="21" width="19" height="1" fill="#000000" />
<rect x="30" y="21" width="5" height="4" fill="#FFFFFF" />
<rect x="35" y="21" width="2" height="1" fill="#000000" />
<rect x="11" y="22" width="18" height="1" fill="#000000" />
<rect x="29" y="22" width="1" height="12" fill="#FFFFFF" />
<rect x="35" y="22" width="1" height="3" fill="#FFFFFF" />
<rect x="36" y="22" width="1" height="1" fill="#000000" />
<rect x="11" y="23" width="17" height="1" fill="#000000" />
<rect x="28" y="23" width="1" height="10" fill="#FFFFFF" />
<rect x="36" y="23" width="1" height="2" fill="#FFFFFF" />
<rect x="11" y="24" width="16" height="1" fill="#000000" />
<rect x="27" y="24" width="1" height="8" fill="#FFFFFF" />
<rect x="37" y="24" width="1" height="2" fill="#FFFFFF" />
<rect x="11" y="25" width="15" height="2" fill="#000000" />
<rect x="26" y="25" width="1" height="5" fill="#FFFFFF" />
<rect x="30" y="25" width="4" height="1" fill="#FFFFFF" />
<rect x="34" y="25" width="3" height="5" fill="#000000" />
<rect x="38" y="25" width="1" height="5" fill="#FFFFFF" />
<rect x="30" y="26" width="3" height="9" fill="#FFFFFF" />
<rect x="33" y="26" width="1" height="3" fill="#000000" />
<rect x="37" y="26" width="1" height="3" fill="#000000" />
<rect x="11" y="27" width="4" height="1" fill="#000000" />
<rect x="15" y="27" width="5" height="4" fill="#FFFFFF" />
<rect x="20" y="27" width="6" height="1" fill="#000000" />
<rect x="11" y="28" width="3" height="1" fill="#000000" />
<rect x="14" y="28" width="1" height="11" fill="#FFFFFF" />
<rect x="20" y="28" width="1" height="3" fill="#FFFFFF" />
<rect x="21" y="28" width="5" height="1" fill="#000000" />
<rect x="11" y="29" width="2" height="1" fill="#000000" />
<rect x="13" y="29" width="1" height="9" fill="#FFFFFF" />
<rect x="21" y="29" width="1" height="2" fill="#FFFFFF" />
<rect x="22" y="29" width="4" height="1" fill="#000000" />
<rect x="33" y="29" width="1" height="6" fill="#FFFFFF" />
<rect x="37" y="29" width="1" height="3" fill="#FFFFFF" />
<rect x="11" y="30" width="1" height="1" fill="#000000" />
<rect x="12" y="30" width="1" height="7" fill="#FFFFFF" />
<rect x="22" y="30" width="1" height="2" fill="#FFFFFF" />
<rect x="23" y="30" width="4" height="1" fill="#000000" />
<rect x="34" y="30" width="3" height="3" fill="#FFFFFF" />
<rect x="38" y="30" width="1" height="16" fill="#000000" />
<rect x="11" y="31" width="1" height="5" fill="#FFFFFF" />
<rect x="15" y="31" width="4" height="1" fill="#FFFFFF" />
<rect x="19" y="31" width="3" height="5" fill="#000000" />
<rect x="23" y="31" width="1" height="5" fill="#FFFFFF" />
<rect x="24" y="31" width="3" height="17" fill="#000000" />
<rect x="15" y="32" width="3" height="8" fill="#FFFFFF" />
<rect x="18" y="32" width="1" height="3" fill="#000000" />
<rect x="22" y="32" width="1" height="3" fill="#000000" />
<rect x="27" y="32" width="1" height="16" fill="#000000" />
<rect x="37" y="32" width="1" height="15" fill="#000000" />
<rect x="28" y="33" width="1" height="15" fill="#000000" />
<rect x="34" y="33" width="2" height="1" fill="#FFFFFF" />
<rect x="36" y="33" width="1" height="15" fill="#000000" />
<rect x="29" y="34" width="1" height="14" fill="#000000" />
<rect x="34" y="34" width="1" height="1" fill="#FFFFFF" />
<rect x="35" y="34" width="1" height="14" fill="#000000" />
<rect x="18" y="35" width="1" height="5" fill="#FFFFFF" />
<rect x="22" y="35" width="1" height="2" fill="#FFFFFF" />
<rect x="30" y="35" width="5" height="13" fill="#000000" />
<rect x="11" y="36" width="1" height="12" fill="#000000" />
<rect x="19" y="36" width="3" height="2" fill="#FFFFFF" />
<rect x="23" y="36" width="1" height="12" fill="#000000" />
<rect x="12" y="37" width="1" height="11" fill="#000000" />
<rect x="22" y="37" width="1" height="11" fill="#000000" />
<rect x="13" y="38" width="1" height="10" fill="#000000" />
<rect x="19" y="38" width="2" height="1" fill="#FFFFFF" />
<rect x="21" y="38" width="1" height="10" fill="#000000" />
<rect x="14" y="39" width="1" height="9" fill="#000000" />
<rect x="19" y="39" width="1" height="1" fill="#FFFFFF" />
<rect x="20" y="39" width="1" height="9" fill="#000000" />
<rect x="15" y="40" width="5" height="8" fill="#000000" />
</svg>