<?xml version="1.0" encoding="UTF-8" ?>
<svg version="1.1" width="256" height="128" xmlns="http://www.w3.org/2000/svg" shape-rendering="crispEdges">
<rect x="0" y="0" width="48" height="4" fill="#FFFFFF" />
<rect x="64" y="0" width="16" height="4" fill="#FFFFFF" />
<rect x="96" y="0" width="32" height="12" fill="#000000" />
<rect x="144" y="0" width="4" height="4" fill="#FFFFFF" />
<rect x="148" y="0" width="12" height="28" fill="#000000" />
<rect x="160" y="0" width="4" height="4" fill="#FFFFFF" />
<rect x="164" y="0" width="8" height="32" fill="#000000" />
<rect x="172" y="0" width="4" height="4" fill="#FFFFFF" />
<rect x="192" y="0" width="12" height="12" fill="#000000" />
<rect x="204" y="0" width="8" height="4" fill="#FFFFFF" />
<rect x="212" y="0" width="12" height="12" fill="#000000" />
<rect x="0" y="4" width="4" height="44" fill="#FFFFFF" />
<rect x="4" y="4" width="40" height="40" fill="#000000" />
<rect x="44" y="4" width="4" height="44" fill="#FFFFFF" />
<rect x="64" y="4" width="4" height="44" fill="#FFFFFF" />
<rect x="68" y="4" width="8" height="40" fill="#000000" />
<rect x="76" y="4" width="4" height="44" fill="#FFFFFF" />
<rect x="144" y="4" width="4" height="8" fill="#000000" />
<rect x="160" y="4" width="4" height="28" fill="#000000" />
<rect x="172" y="4" width="4" height="12" fill="#000000" />
<rect x="204" y="4" width="8" height="8" fill="#000000" />
<rect x="96" y="12" width="12" height="20" fill="#000000" />
<rect x="108" y="12" width="8" height="8" fill="#FFFFFF" />
<rect x="116" y="12" width="12" height="20" fill="#000000" />
<rect x="144" y="12" width="4" height="4" fill="#FFFFFF" />
<rect x="192" y="12" width="4" height="8" fill="#FFFFFF" />
<rect x="196" y="12" width="8" height="20" fill="#000000" />
<rect x="204" y="12" width="8" height="8" fill="#FFFFFF" />
<rect x="212" y="12" width="8" height="20" fill="#000000" />
<rect x="220" y="12" width="4" height="8" fill="#FFFFFF" />
<rect x="144" y="16" width="4" height="12" fill="#000000" />
<rect x="172" y="16" width="4" height="4" fill="#FFFFFF" />
<rect x="108" y="20" width="8" height="12" fill="#000000" />
<rect x="172" y="20" width="4" height="8" fill="#000000" />
<rect x="192" y="20" width="4" height="12" fill="#000000" />
<rect x="204" y="20" width="8" height="8" fill="#000000" />
<rect x="220" y="20" width="4" height="12" fill="#000000" />
<rect x="144" y="28" width="4" height="4" fill="#FFFFFF" />
<rect x="148" y="28" width="8" height="4" fill="#000000" />
<rect x="156" y="28" width="4" height="4" fill="#FFFFFF" />
<rect x="172" y="28" width="4" height="4" fill="#FFFFFF" />
<rect x="204" y="28" width="8" height="4" fill="#FFFFFF" />
<rect x="4" y="44" width="40" height="4" fill="#FFFFFF" />
<rect x="68" y="44" width="8" height="4" fill="#FFFFFF" />
<rect x="96" y="48" width="32" height="4" fill="#FFFFFF" />
<rect x="144" y="48" width="4" height="32" fill="#FFFFFF" />
<rect x="148" y="48" width="24" height="12" fill="#000000" />
<rect x="172" y="48" width="4" height="32" fill="#FFFFFF" />
<rect x="192" y="48" width="20" height="4" fill="#FFFFFF" />
<rect x="212" y="48" width="8" height="28" fill="#000000" />
<rect x="220" y="48" width="4" height="20" fill="#FFFFFF" />
<rect x="96" y="52" width="32" height="8" fill="#000000" />
<rect x="192" y="52" width="20" height="8" fill="#000000" />
<rect x="96" y="60" width="12" height="16" fill="#000000" />
<rect x="108" y="60" width="8" height="8" fill="#FFFFFF" />
<rect x="116" y="60" width="12" height="16" fill="#000000" />
<rect x="148" y="60" width="8" height="20" fill="#000000" />
<rect x="156" y="60" width="8" height="8" fill="#FFFFFF" />
<rect x="164" y="60" width="8" height="20" fill="#000000" />
<rect x="192" y="60" width="4" height="20" fill="#FFFFFF" />
<rect x="196" y="60" width="8" height="20" fill="#000000" />
<rect x="204" y="60" width="8" height="8" fill="#FFFFFF" />
<rect x="0" y="64" width="48" height="4" fill="#FFFFFF" />
<rect x="64" y="64" width="16" height="4" fill="#FFFFFF" />
<rect x="0" y="68" width="4" height="12" fill="#FFFFFF" />
<rect x="4" y="68" width="40" height="8" fill="#000000" />
<rect x="44" y="68" width="4" height="12" fill="#FFFFFF" />
<rect x="64" y="68" width="4" height="12" fill="#FFFFFF" />
<rect x="68" y="68" width="8" height="8" fill="#000000" />
<rect x="76" y="68" width="4" height="12" fill="#FFFFFF" />
<rect x="108" y="68" width="8" height="8" fill="#000000" />
<rect x="156" y="68" width="8" height="12" fill="#000000" />
<rect x="204" y="68" width="8" height="8" fill="#000000" />
<rect x="220" y="68" width="4" height="8" fill="#000000" />
<rect x="4" y="76" width="40" height="4" fill="#FFFFFF" />
<rect x="68" y="76" width="8" height="4" fill="#FFFFFF" />
<rect x="96" y="76" width="32" height="4" fill="#FFFFFF" />
<rect x="204" y="76" width="20" height="4" fill="#FFFFFF" />
<rect x="96" y="96" width="32" height="4" fill="#FFFFFF" />
<rect x="144" y="96" width="4" height="4" fill="#FFFFFF" />
<rect x="148" y="96" width="8" height="32" fill="#000000" />
<rect x="156" y="96" width="4" height="4" fill="#FFFFFF" />
<rect x="96" y="100" width="4" height="28" fill="#FFFFFF" />
<rect x="100" y="100" width="24" height="8" fill="#000000" />
<rect x="124" y="100" width="4" height="28" fill="#FFFFFF" />
<rect x="144" y="100" width="4" height="8" fill="#000000" />
<rect x="156" y="100" width="4" height="8" fill="#000000" />
<rect x="100" y="108" width="8" height="16" fill="#000000" />
<rect x="108" y="108" width="8" height="8" fill="#FFFFFF" />
<rect x="116" y="108" width="8" height="16" fill="#000000" />
<rect x="144" y="108" width="4" height="4" fill="#FFFFFF" />
<rect x="156" y="108" width="4" height="8" fill="#FFFFFF" />
<rect x="144" y="112" width="4" height="12" fill="#000000" />
<rect x="160" y="112" width="4" height="4" fill="#FFFFFF" />
<rect x="164" y="112" width="12" height="12" fill="#000000" />
<rect x="108" y="116" width="8" height="8" fill="#000000" />
<rect x="156" y="116" width="8" height="12" fill="#000000" />
<rect x="100" y="124" width="24" height="4" fill="#FFFFFF" />
<rect x="144" y="124" width="4" height="4" fill="#FFFFFF" />
<rect x="164" y="124" width="8" height="4" fill="#000000" />
<rect x="172" y="124" width="4" height="4" fill="#FFFFFF" />
</svg>