<?xml version="1.0" encoding="UTF-8" ?>
<svg version="1.1" width="256" height="128" xmlns="http://www.w3.org/2000/svg" shape-rendering="crispEdges">
<rect x="40" y="0" width="16" height="1" fill="#000000" />
<rect x="88" y="0" width="16" height="1" fill="#000000" />
<rect x="128" y="0" width="48" height="1" fill="#000000" />
<rect x="40" y="1" width="1" height="31" fill="#000000" />
<rect x="41" y="1" width="14" height="30" fill="#FFFFFF" />
<rect x="55" y="1" width="1" height="31" fill="#000000" />
<rect x="88" y="1" width="1" height="8" fill="#000000" />
<rect x="89" y="1" width="14" height="30" fill="#FFFFFF" />
<rect x="103" y="1" width="1" height="8" fill="#000000" />
<rect x="128" y="1" width="1" height="47" fill="#000000" />
<rect x="129" y="1" width="46" height="46" fill="#FFFFFF" />
<rect x="175" y="1" width="1" height="47" fill="#000000" />
<rect x="8" y="8" width="16" height="1" fill="#000000" />
<rect x="80" y="8" width="8" height="1" fill="#000000" />
<rect x="104" y="8" width="8" height="1" fill="#000000" />
<rect x="8" y="9" width="1" height="15" fill="#000000" />
<rect x="9" y="9" width="14" height="14" fill="#FFFFFF" />
<rect x="23" y="9" width="1" height="15" fill="#000000" />
<rect x="80" y="9" width="1" height="15" fill="#000000" />
<rect x="81" y="9" width="8" height="14" fill="#FFFFFF" />
<rect x="103" y="9" width="8" height="14" fill="#FFFFFF" />
<rect x="111" y="9" width="1" height="15" fill="#000000" />
<rect x="9" y="23" width="14" height="1" fill="#000000" />
<rect x="81" y="23" width="8" height="1" fill="#000000" />
<rect x="103" y="23" width="8" height="1" fill="#000000" />
<rect x="88" y="24" width="1" height="8" fill="#000000" />
<rect x="103" y="24" width="1" height="8" fill="#000000" />
<rect x="41" y="31" width="14" height="1" fill="#000000" />
<rect x="89" y="31" width="14" height="1" fill="#000000" />
<rect x="129" y="47" width="46" height="1" fill="#000000" />
<rect x="62" y="64" width="2" height="1" fill="#000000" />
<rect x="79" y="64" width="1" height="16" fill="#000000" />
<rect x="111" y="64" width="1" height="16" fill="#000000" />
<rect x="128" y="64" width="2" height="2" fill="#FFFFFF" />
<rect x="130" y="64" width="2" height="2" fill="#000000" />
<rect x="132" y="64" width="2" height="2" fill="#FFFFFF" />
<rect x="134" y="64" width="2" height="2" fill="#000000" />
<rect x="136" y="64" width="2" height="2" fill="#FFFFFF" />
<rect x="138" y="64" width="2" height="2" fill="#000000" />
<rect x="140" y="64" width="2" height="2" fill="#FFFFFF" />
<rect x="142" y="64" width="2" height="2" fill="#000000" />
<rect x="60" y="65" width="2" height="1" fill="#000000" />
<rect x="62" y="65" width="1" height="6" fill="#FFFFFF" />
<rect x="63" y="65" width="1" height="7" fill="#000000" />
<rect x="78" y="65" width="1" height="1" fill="#000000" />
<rect x="58" y="66" width="2" height="1" fill="#000000" />
<rect x="60" y="66" width="2" height="5" fill="#FFFFFF" />
<rect x="77" y="66" width="1" height="1" fill="#000000" />
<rect x="78" y="66" width="1" height="13" fill="#FFFFFF" />
<rect x="110" y="66" width="1" height="2" fill="#000000" />
<rect x="128" y="66" width="2" height="2" fill="#000000" />
<rect x="130" y="66" width="2" height="2" fill="#FFFFFF" />
<rect x="132" y="66" width="2" height="2" fill="#000000" />
<rect x="134" y="66" width="2" height="2" fill="#FFFFFF" />
<rect x="136" y="66" width="2" height="2" fill="#000000" />
<rect x="138" y="66" width="2" height="2" fill="#FFFFFF" />
<rect x="140" y="66" width="2" height="2" fill="#000000" />
<rect x="142" y="66" width="2" height="2" fill="#FFFFFF" />
<rect x="56" y="67" width="2" height="1" fill="#000000" />
<rect x="58" y="67" width="2" height="4" fill="#FFFFFF" />
<rect x="76" y="67" width="1" height="1" fill="#000000" />
<rect x="77" y="67" width="1" height="12" fill="#FFFFFF" />
<rect x="54" y="68" width="2" height="1" fill="#000000" />
<rect x="56" y="68" width="2" height="3" fill="#FFFFFF" />
<rect x="75" y="68" width="1" height="1" fill="#000000" />
<rect x="76" y="68" width="1" height="11" fill="#FFFFFF" />
<rect x="109" y="68" width="1" height="2" fill="#000000" />
<rect x="110" y="68" width="1" height="11" fill="#FFFFFF" />
<rect x="128" y="68" width="2" height="2" fill="#FFFFFF" />
<rect x="130" y="68" width="2" height="2" fill="#000000" />
<rect x="132" y="68" width="2" height="2" fill="#FFFFFF" />
<rect x="134" y="68" width="2" height="2" fill="#000000" />
<rect x="136" y="68" width="2" height="2" fill="#FFFFFF" />
<rect x="138" y="68" width="2" height="2" fill="#000000" />
<rect x="140" y="68" width="2" height="2" fill="#FFFFFF" />
<rect x="142" y="68" width="2" height="2" fill="#000000" />
<rect x="52" y="69" width="2" height="1" fill="#000000" />
<rect x="54" y="69" width="2" height="2" fill="#FFFFFF" />
<rect x="74" y="69" width="1" height="1" fill="#000000" />
<rect x="75" y="69" width="1" height="10" fill="#FFFFFF" />
<rect x="50" y="70" width="2" height="2" fill="#000000" />
<rect x="52" y="70" width="2" height="1" fill="#FFFFFF" />
<rect x="73" y="70" width="1" height="1" fill="#000000" />
<rect x="74" y="70" width="1" height="9" fill="#FFFFFF" />
<rect x="108" y="70" width="1" height="2" fill="#000000" />
<rect x="109" y="70" width="1" height="9" fill="#FFFFFF" />
<rect x="128" y="70" width="2" height="2" fill="#000000" />
<rect x="130" y="70" width="2" height="2" fill="#FFFFFF" />
<rect x="132" y="70" width="2" height="2" fill="#000000" />
<rect x="134" y="70" width="2" height="2" fill="#FFFFFF" />
<rect x="136" y="70" width="2" height="2" fill="#000000" />
<rect x="138" y="70" width="2" height="2" fill="#FFFFFF" />
<rect x="140" y="70" width="2" height="2" fill="#000000" />
<rect x="142" y="70" width="2" height="2" fill="#FFFFFF" />
<rect x="48" y="71" width="2" height="1" fill="#000000" />
<rect x="52" y="71" width="11" height="1" fill="#000000" />
<rect x="72" y="71" width="1" height="1" fill="#000000" />
<rect x="73" y="71" width="1" height="8" fill="#FFFFFF" />
<rect x="15" y="72" width="1" height="8" fill="#000000" />
<rect x="46" y="72" width="2" height="1" fill="#000000" />
<rect x="71" y="72" width="1" height="1" fill="#000000" />
<rect x="72" y="72" width="1" height="7" fill="#FFFFFF" />
<rect x="107" y="72" width="1" height="2" fill="#000000" />
<rect x="108" y="72" width="1" height="7" fill="#FFFFFF" />
<rect x="128" y="72" width="2" height="2" fill="#FFFFFF" />
<rect x="130" y="72" width="2" height="2" fill="#000000" />
<rect x="132" y="72" width="2" height="2" fill="#FFFFFF" />
<rect x="134" y="72" width="2" height="2" fill="#000000" />
<rect x="136" y="72" width="2" height="2" fill="#FFFFFF" />
<rect x="138" y="72" width="2" height="2" fill="#000000" />
<rect x="140" y="72" width="2" height="2" fill="#FFFFFF" />
<rect x="142" y="72" width="2" height="2" fill="#000000" />
<rect x="14" y="73" width="1" height="1" fill="#000000" />
<rect x="44" y="73" width="2" height="1" fill="#000000" />
<rect x="46" y="73" width="1" height="6" fill="#FFFFFF" />
<rect x="47" y="73" width="1" height="7" fill="#000000" />
<rect x="70" y="73" width="1" height="1" fill="#000000" />
<rect x="71" y="73" width="1" height="6" fill="#FFFFFF" />
<rect x="13" y="74" width="1" height="1" fill="#000000" />
<rect x="14" y="74" width="1" height="5" fill="#FFFFFF" />
<rect x="42" y="74" width="2" height="1" fill="#000000" />
<rect x="44" y="74" width="2" height="5" fill="#FFFFFF" />
<rect x="69" y="74" width="1" height="1" fill="#000000" />
<rect x="70" y="74" width="1" height="5" fill="#FFFFFF" />
<rect x="106" y="74" width="1" height="2" fill="#000000" />
<rect x="107" y="74" width="1" height="5" fill="#FFFFFF" />
<rect x="128" y="74" width="2" height="2" fill="#000000" />
<rect x="130" y="74" width="2" height="2" fill="#FFFFFF" />
<rect x="132" y="74" width="2" height="2" fill="#000000" />
<rect x="134" y="74" width="2" height="2" fill="#FFFFFF" />
<rect x="136" y="74" width="2" height="2" fill="#000000" />
<rect x="138" y="74" width="2" height="2" fill="#FFFFFF" />
<rect x="140" y="74" width="2" height="2" fill="#000000" />
<rect x="142" y="74" width="2" height="2" fill="#FFFFFF" />
<rect x="12" y="75" width="1" height="1" fill="#000000" />
<rect x="13" y="75" width="1" height="4" fill="#FFFFFF" />
<rect x="40" y="75" width="2" height="1" fill="#000000" />
<rect x="42" y="75" width="2" height="4" fill="#FFFFFF" />
<rect x="68" y="75" width="1" height="1" fill="#000000" />
<rect x="69" y="75" width="1" height="4" fill="#FFFFFF" />
<rect x="11" y="76" width="1" height="1" fill="#000000" />
<rect x="12" y="76" width="1" height="3" fill="#FFFFFF" />
<rect x="38" y="76" width="2" height="1" fill="#000000" />
<rect x="40" y="76" width="2" height="3" fill="#FFFFFF" />
<rect x="67" y="76" width="1" height="1" fill="#000000" />
<rect x="68" y="76" width="1" height="3" fill="#FFFFFF" />
<rect x="105" y="76" width="1" height="2" fill="#000000" />
<rect x="106" y="76" width="1" height="3" fill="#FFFFFF" />
<rect x="128" y="76" width="2" height="2" fill="#FFFFFF" />
<rect x="130" y="76" width="2" height="2" fill="#000000" />
<rect x="132" y="76" width="2" height="2" fill="#FFFFFF" />
<rect x="134" y="76" width="2" height="2" fill="#000000" />
<rect x="136" y="76" width="2" height="2" fill="#FFFFFF" />
<rect x="138" y="76" width="2" height="2" fill="#000000" />
<rect x="140" y="76" width="2" height="2" fill="#FFFFFF" />
<rect x="142" y="76" width="2" height="2" fill="#000000" />
<rect x="10" y="77" width="1" height="1" fill="#000000" />
<rect x="11" y="77" width="1" height="2" fill="#FFFFFF" />
<rect x="36" y="77" width="2" height="1" fill="#000000" />
<rect x="38" y="77" width="2" height="2" fill="#FFFFFF" />
<rect x="66" y="77" width="1" height="1" fill="#000000" />
<rect x="67" y="77" width="1" height="2" fill="#FFFFFF" />
<rect x="9" y="78" width="1" height="2" fill="#000000" />
<rect x="10" y="78" width="1" height="1" fill="#FFFFFF" />
<rect x="34" y="78" width="2" height="2" fill="#000000" />
<rect x="36" y="78" width="2" height="1" fill="#FFFFFF" />
<rect x="65" y="78" width="1" height="2" fill="#000000" />
<rect x="66" y="78" width="1" height="1" fill="#FFFFFF" />
<rect x="104" y="78" width="1" height="2" fill="#000000" />
<rect x="105" y="78" width="1" height="1" fill="#FFFFFF" />
<rect x="128" y="78" width="2" height="2" fill="#000000" />
<rect x="130" y="78" width="2" height="2" fill="#FFFFFF" />
<rect x="132" y="78" width="2" height="2" fill="#000000" />
<rect x="134" y="78" width="2" height="2" fill="#FFFFFF" />
<rect x="136" y="78" width="2" height="2" fill="#000000" />
<rect x="138" y="78" width="2" height="2" fill="#FFFFFF" />
<rect x="140" y="78" width="2" height="2" fill="#000000" />
<rect x="142" y="78" width="2" height="2" fill="#FFFFFF" />
<rect x="8" y="79" width="1" height="1" fill="#000000" />
<rect x="10" y="79" width="5" height="1" fill="#000000" />
<rect x="32" y="79" width="2" height="1" fill="#000000" />
<rect x="36" y="79" width="11" height="1" fill="#000000" />
<rect x="64" y="79" width="1" height="1" fill="#000000" />
<rect x="66" y="79" width="13" height="1" fill="#000000" />
<rect x="105" y="79" width="6" height="1" fill="#000000" />
<rect x="48" y="80" width="16" height="1" fill="#000000" />
<rect x="48" y="81" width="1" height="7" fill="#000000" />
<rect x="49" y="81" width="11" height="1" fill="#FFFFFF" />
<rect x="60" y="81" width="2" height="1" fill="#000000" />
<rect x="49" y="82" width="9" height="1" fill="#FFFFFF" />
<rect x="58" y="82" width="2" height="1" fill="#000000" />
<rect x="49" y="83" width="7" height="1" fill="#FFFFFF" />
<rect x="56" y="83" width="2" height="1" fill="#000000" />
<rect x="49" y="84" width="5" height="1" fill="#FFFFFF" />
<rect x="54" y="84" width="2" height="1" fill="#000000" />
<rect x="49" y="85" width="3" height="1" fill="#FFFFFF" />
<rect x="52" y="85" width="2" height="1" fill="#000000" />
<rect x="49" y="86" width="1" height="1" fill="#FFFFFF" />
<rect x="50" y="86" width="2" height="1" fill="#000000" />
<rect x="49" y="87" width="1" height="1" fill="#000000" />
<rect x="32" y="88" width="16" height="1" fill="#000000" />
<rect x="32" y="89" width="1" height="7" fill="#000000" />
<rect x="33" y="89" width="11" height="1" fill="#FFFFFF" />
<rect x="44" y="89" width="2" height="1" fill="#000000" />
<rect x="33" y="90" width="9" height="1" fill="#FFFFFF" />
<rect x="42" y="90" width="2" height="1" fill="#000000" />
<rect x="33" y="91" width="7" height="1" fill="#FFFFFF" />
<rect x="40" y="91" width="2" height="1" fill="#000000" />
<rect x="33" y="92" width="5" height="1" fill="#FFFFFF" />
<rect x="38" y="92" width="2" height="1" fill="#000000" />
<rect x="33" y="93" width="3" height="1" fill="#FFFFFF" />
<rect x="36" y="93" width="2" height="1" fill="#000000" />
<rect x="33" y="94" width="1" height="1" fill="#FFFFFF" />
<rect x="34" y="94" width="2" height="1" fill="#000000" />
<rect x="33" y="95" width="1" height="1" fill="#000000" />
<rect x="33" y="97" width="14" height="1" fill="#000000" />
<rect x="33" y="98" width="1" height="13" fill="#000000" />
<rect x="34" y="98" width="12" height="12" fill="#FFFFFF" />
<rect x="46" y="98" width="1" height="13" fill="#000000" />
<rect x="50" y="98" width="12" height="1" fill="#000000" />
<rect x="50" y="99" width="1" height="11" fill="#000000" />
<rect x="51" y="99" width="10" height="10" fill="#FFFFFF" />
<rect x="61" y="99" width="1" height="11" fill="#000000" />
<rect x="67" y="99" width="10" height="1" fill="#000000" />
<rect x="67" y="100" width="1" height="9" fill="#000000" />
<rect x="68" y="100" width="8" height="8" fill="#FFFFFF" />
<rect x="76" y="100" width="1" height="9" fill="#000000" />
<rect x="84" y="100" width="8" height="1" fill="#000000" />
<rect x="84" y="101" width="1" height="7" fill="#000000" />
<rect x="85" y="101" width="6" height="6" fill="#FFFFFF" />
<rect x="91" y="101" width="1" height="7" fill="#000000" />
<rect x="101" y="101" width="6" height="1" fill="#000000" />
<rect x="101" y="102" width="1" height="5" fill="#000000" />
<rect x="102" y="102" width="4" height="4" fill="#FFFFFF" />
<rect x="106" y="102" width="1" height="5" fill="#000000" />
<rect x="118" y="102" width="4" height="1" fill="#000000" />
<rect x="118" y="103" width="1" height="3" fill="#000000" />
<rect x="119" y="103" width="2" height="2" fill="#FFFFFF" />
<rect x="121" y="103" width="1" height="3" fill="#000000" />
<rect x="135" y="103" width="2" height="2" fill="#000000" />
<rect x="119" y="105" width="2" height="1" fill="#000000" />
<rect x="102" y="106" width="4" height="1" fill="#000000" />
<rect x="85" y="107" width="6" height="1" fill="#000000" />
<rect x="68" y="108" width="8" height="1" fill="#000000" />
<rect x="51" y="109" width="10" height="1" fill="#000000" />
<rect x="34" y="110" width="12" height="1" fill="#000000" />
</svg>